<?xml version="1.0" encoding="UTF-8" standalone="no"?>
<svg width="163px" height="205px" viewBox="0 0 163 205" version="1.1" xmlns="http://www.w3.org/2000/svg" xmlns:xlink="http://www.w3.org/1999/xlink" xmlns:sketch="http://www.bohemiancoding.com/sketch/ns">
    <!-- Generator: Sketch 3.5.1 (25234) - http://www.bohemiancoding.com/sketch -->
    <title>clone-trooper</title>
    <desc>Created with Sketch.</desc>
    <defs></defs>
    <g id="Page-1" stroke="none" stroke-width="1" fill="none" fill-rule="evenodd" sketch:type="MSPage">
        <g id="star-wars-copy" sketch:type="MSArtboardGroup" transform="translate(-1377.000000, -2025.000000)">
            <g id="clone-trooper" sketch:type="MSLayerGroup" transform="translate(1377.000000, 2025.000000)">
                <path d="M151.1212,75.5 C151.1212,37.394 120.0352,6.5 81.6952,6.5 C43.3492,6.5 12.2632,37.394 12.2632,75.5 C12.2632,113.606 43.3492,144.5 81.6952,144.5 C120.0352,144.5 151.1212,113.606 151.1212,75.5" id="Fill-47" fill="#ECECEC" sketch:type="MSShapeGroup"></path>
                <path d="M29.6212,69.5 C28.0252,69.5 26.7292,68.156 26.7292,66.5 C26.7292,40.034 51.3832,18.5 81.6952,18.5 C83.2912,18.5 84.5872,19.844 84.5872,21.5 C84.5872,23.156 83.2912,24.5 81.6952,24.5 C54.5752,24.5 32.5132,43.34 32.5132,66.5 C32.5132,68.156 31.2232,69.5 29.6212,69.5" id="Fill-48" opacity="0.5" fill="#FFFFFF" sketch:type="MSShapeGroup"></path>
                <path d="M5.3986,138.506 L0.8686,167.996 C-0.1814,174.812 3.5866,181.418 9.6766,183.452 L65.0686,201.938 C75.8986,205.556 87.5086,205.334 98.2186,201.314 L154.1326,180.32 C160.0606,178.094 163.6066,171.512 162.4846,164.81 L158.0746,138.5 L5.3986,138.506 Z" id="Fill-49" fill="#ECECEC" sketch:type="MSShapeGroup"></path>
                <path d="M151.12,180.362 L12.262,180.362 L12.262,72.5 L151.12,72.5 L151.12,180.362 Z" id="Fill-50" fill="#ECECEC" sketch:type="MSShapeGroup"></path>
                <path d="M151.1212,96.7502 L151.1212,90.4982 L12.2632,90.4982 L12.2632,96.2522 L70.1212,108.4982 L75.9052,144.4982 L87.4792,144.4982 L93.2632,108.4982 L151.1212,96.7502 Z" id="Fill-51" fill="#323232" sketch:type="MSShapeGroup"></path>
                <path d="M151.12,72.5 L12.262,72.5 L12.262,84.5 L151.12,84.5 L151.12,72.5 Z" id="Fill-52" fill="#323232" sketch:type="MSShapeGroup"></path>
                <path d="M75.907,144.5 L41.191,186.5 L81.691,152.192 L122.191,186.5 L87.481,144.5 L75.907,144.5 Z" id="Fill-53" fill="#323232" sketch:type="MSShapeGroup"></path>
                <path d="M15.3736,162.3626 L4.8616,162.3626 L4.8616,77.0126 C4.8616,71.2046 9.5716,66.5006 15.3736,66.5006 L15.3736,162.3626 Z" id="Fill-54" fill="#ECECEC" sketch:type="MSShapeGroup"></path>
                <path d="M159.4858,162.3626 L148.9738,162.3626 L148.9738,66.5006 C154.7818,66.5006 159.4858,71.2046 159.4858,77.0126 L159.4858,162.3626 Z" id="Fill-55" fill="#ECECEC" sketch:type="MSShapeGroup"></path>
                <path d="M12.2644,108.5 L46.9804,132.5 L46.9804,168.5 L12.2644,156.5 L12.2644,108.5 Z" id="Fill-56" fill="#D5D5D5" sketch:type="MSShapeGroup"></path>
                <path d="M151.1212,108.5 L116.4052,132.5 L116.4052,168.5 L151.1212,156.5 L151.1212,108.5 Z" id="Fill-57" fill="#D5D5D5" sketch:type="MSShapeGroup"></path>
                <path d="M93.265,30.5 L93.265,6.5 C93.265,3.188 90.577,0.5 87.265,0.5 L76.123,0.5 C72.805,0.5 70.123,3.188 70.123,6.5 L70.123,30.5 L93.265,30.5 Z" id="Fill-58" fill="#D5D5D5" sketch:type="MSShapeGroup"></path>
            </g>
        </g>
    </g>
</svg>