<?xml version="1.0" encoding="UTF-8" standalone="no"?>
<svg width="180px" height="157px" viewBox="0 0 180 157" version="1.1" xmlns="http://www.w3.org/2000/svg" xmlns:xlink="http://www.w3.org/1999/xlink" xmlns:sketch="http://www.bohemiancoding.com/sketch/ns">
    <!-- Generator: Sketch 3.5.1 (25234) - http://www.bohemiancoding.com/sketch -->
    <title>jawa</title>
    <desc>Created with Sketch.</desc>
    <defs></defs>
    <g id="Page-1" stroke="none" stroke-width="1" fill="none" fill-rule="evenodd" sketch:type="MSPage">
        <g id="star-wars-copy" sketch:type="MSArtboardGroup" transform="translate(-270.000000, -2049.000000)">
            <g id="jawa" sketch:type="MSLayerGroup" transform="translate(270.000000, 2049.000000)">
                <path d="M178.7928,147.297 C159.9648,120.063 155.9148,101.841 155.9268,95.661 C155.9508,94.869 156.0408,94.107 156.0408,93.309 C156.0408,67.659 144.4008,40.893 127.6668,22.683 L139.7988,10.551 C143.5788,6.771 140.9028,0.309 135.5568,0.309 L90.0408,0.309 C64.9968,0.309 23.9268,48.573 23.9268,93.309 C23.9268,94.107 24.0228,94.869 24.0408,95.661 C24.0528,101.841 20.1228,120.063 1.2948,147.297 C-1.3992,151.197 0.7968,156.603 5.4228,156.603 L48.0408,156.603 L48.0408,156.309 L132.0408,156.309 L132.0408,156.603 L174.6648,156.603 C179.2908,156.603 181.4868,151.197 178.7928,147.297" id="Fill-81" fill="#8C5A3C" sketch:type="MSShapeGroup"></path>
                <path d="M141.0438,93.3072 C141.0438,124.7892 118.2078,150.3072 90.0438,150.3072 C61.8798,150.3072 39.0438,124.7892 39.0438,93.3072 C39.0438,61.8252 71.3178,36.3072 90.0438,36.3072 C109.5678,36.3072 141.0438,61.8252 141.0438,93.3072" id="Fill-83" fill="#323232" sketch:type="MSShapeGroup"></path>
                <path d="M78.0438,90.3072 C78.0438,96.9372 72.6738,102.3072 66.0438,102.3072 C59.4138,102.3072 54.0438,96.9372 54.0438,90.3072 C54.0438,83.6772 59.4138,78.3072 66.0438,78.3072 C72.6738,78.3072 78.0438,83.6772 78.0438,90.3072" id="Fill-85" fill="#F1C40F" sketch:type="MSShapeGroup"></path>
                <path d="M126.0438,90.3072 C126.0438,96.9372 120.6738,102.3072 114.0438,102.3072 C107.4138,102.3072 102.0438,96.9372 102.0438,90.3072 C102.0438,83.6772 107.4138,78.3072 114.0438,78.3072 C120.6738,78.3072 126.0438,83.6772 126.0438,90.3072" id="Fill-87" fill="#F1C40F" sketch:type="MSShapeGroup"></path>
            </g>
        </g>
    </g>
</svg>