<?xml version="1.0" encoding="UTF-8" standalone="no"?>
<svg width="40px" height="424px" viewBox="0 0 40 424" version="1.1" xmlns="http://www.w3.org/2000/svg" xmlns:xlink="http://www.w3.org/1999/xlink" xmlns:sketch="http://www.bohemiancoding.com/sketch/ns">
    <!-- Generator: Sketch 3.5.1 (25234) - http://www.bohemiancoding.com/sketch -->
    <title>lightsaber-darth-vader</title>
    <desc>Created with Sketch.</desc>
    <defs></defs>
    <g id="Page-1" stroke="none" stroke-width="1" fill="none" fill-rule="evenodd" sketch:type="MSPage">
        <g id="star-wars-copy" sketch:type="MSArtboardGroup" transform="translate(-1066.000000, -2367.000000)">
            <g id="lightsaber-darth-vader" sketch:type="MSLayerGroup" transform="translate(1066.000000, 2367.000000)">
                <path d="M24.5688,5.04 C24.4928,2.32 22.5648,0.088 20.1408,0.004 C17.6168,-0.084 15.5088,2.168 15.4328,5.04 L12.0008,288 L28.0008,288 L24.5688,5.04 Z" id="Fill-1" fill="#E74C3C" sketch:type="MSShapeGroup"></path>
                <path d="M40,288 L36,288 L36,284 L40,284 L40,288 Z" id="Fill-3" fill="#BEBEBE" sketch:type="MSShapeGroup"></path>
                <path d="M40,300 L36,300 L36,296 L40,296 L40,300 Z" id="Fill-5" fill="#BEBEBE" sketch:type="MSShapeGroup"></path>
                <path d="M32,424 L8,424 L8,420 L32,420 L32,424 Z" id="Fill-6" fill="#BEBEBE" sketch:type="MSShapeGroup"></path>
                <path d="M32,352 L8,352 L8,344 L32,344 L32,352 Z" id="Fill-7" fill="#BEBEBE" sketch:type="MSShapeGroup"></path>
                <path d="M32,320 L8,320 L8,304 L32,304 L32,320 Z" id="Fill-8" fill="#BEBEBE" sketch:type="MSShapeGroup"></path>
                <path d="M36,344 L4,344 L4,320 L36,320 L36,344 Z" id="Fill-9" fill="#323232" sketch:type="MSShapeGroup"></path>
                <path d="M36,304 L4,304 L4,288 L36,272 L36,304 Z" id="Fill-10" fill="#323232" sketch:type="MSShapeGroup"></path>
                <path d="M0,340 L4,340 L4,324 L0,324 L0,340 Z" id="Fill-11" fill="#BEBEBE" sketch:type="MSShapeGroup"></path>
                <path d="M32,420 L8,420 L8,352 L32,352 L32,420 Z" id="Fill-12" fill="#BEBEBE" sketch:type="MSShapeGroup"></path>
                <path d="M12,420 L4,420 L4,352 L12,352 L12,420 Z" id="Fill-13" fill="#323232" sketch:type="MSShapeGroup"></path>
                <path d="M36,420 L28,420 L28,352 L36,352 L36,420 Z" id="Fill-14" fill="#323232" sketch:type="MSShapeGroup"></path>
                <path d="M24,420 L16,420 L16,352 L24,352 L24,420 Z" id="Fill-15" fill="#323232" sketch:type="MSShapeGroup"></path>
            </g>
        </g>
    </g>
</svg>