<?xml version="1.0" encoding="UTF-8" standalone="no"?>
<svg width="32px" height="424px" viewBox="0 0 32 424" version="1.1" xmlns="http://www.w3.org/2000/svg" xmlns:xlink="http://www.w3.org/1999/xlink" xmlns:sketch="http://www.bohemiancoding.com/sketch/ns">
    <!-- Generator: Sketch 3.5.1 (25234) - http://www.bohemiancoding.com/sketch -->
    <title>lightsaber-luke-rotj</title>
    <desc>Created with Sketch.</desc>
    <defs></defs>
    <g id="Page-1" stroke="none" stroke-width="1" fill="none" fill-rule="evenodd" sketch:type="MSPage">
        <g id="star-wars-copy" sketch:type="MSArtboardGroup" transform="translate(-1201.000000, -2367.000000)">
            <g id="lightsaber-luke-rotj" sketch:type="MSLayerGroup" transform="translate(1201.000000, 2367.000000)">
                <path d="M20.5688,5.04 C20.4928,2.32 18.5648,0.088 16.1408,0.004 C13.6168,-0.084 11.5088,2.168 11.4328,5.04 L8.0008,288 L24.0008,288 L20.5688,5.04 Z" id="Fill-16" fill="#8CBE3C" sketch:type="MSShapeGroup"></path>
                <path d="M28,424 L4,424 L4,420 L28,420 L28,424 Z" id="Fill-17" fill="#BEBEBE" sketch:type="MSShapeGroup"></path>
                <path d="M28,400 L4,400 L4,384 L28,384 L28,400 Z" id="Fill-18" fill="#8C8C8C" sketch:type="MSShapeGroup"></path>
                <path d="M30,348 L2,348 L2,344 L30,344 L30,348 Z" id="Fill-19" fill="#8C8C8C" sketch:type="MSShapeGroup"></path>
                <path d="M28,344 L4,344 L4,340 L28,340 L28,344 Z" id="Fill-20" fill="#323232" sketch:type="MSShapeGroup"></path>
                <path d="M30,340 L2,340 L2,336 L30,336 L30,340 Z" id="Fill-21" fill="#8C8C8C" sketch:type="MSShapeGroup"></path>
                <path d="M28,336 L4,336 L4,332 L28,332 L28,336 Z" id="Fill-22" fill="#323232" sketch:type="MSShapeGroup"></path>
                <path d="M30,332 L2,332 L2,328 L30,328 L30,332 Z" id="Fill-23" fill="#8C8C8C" sketch:type="MSShapeGroup"></path>
                <path d="M28,328 L4,328 L4,324 L28,324 L28,328 Z" id="Fill-24" fill="#323232" sketch:type="MSShapeGroup"></path>
                <path d="M30,324 L2,324 L2,320 L30,320 L30,324 Z" id="Fill-25" fill="#8C8C8C" sketch:type="MSShapeGroup"></path>
                <path d="M28,320 L4,320 L4,316 L28,316 L28,320 Z" id="Fill-26" fill="#323232" sketch:type="MSShapeGroup"></path>
                <path d="M28,352 L4,352 L4,348 L28,348 L28,352 Z" id="Fill-27" fill="#323232" sketch:type="MSShapeGroup"></path>
                <path d="M28,388 L4,388 L4,360 L28,360 L28,388 Z" id="Fill-28" fill="#BEBEBE" sketch:type="MSShapeGroup"></path>
                <path d="M24,320 L8,320 L8,300 L24,300 L24,320 Z" id="Fill-29" fill="#323232" sketch:type="MSShapeGroup"></path>
                <path d="M32,272 L0,272 L0,276 L32,276 L32,272 Z" id="Fill-30" fill="#BEBEBE" sketch:type="MSShapeGroup"></path>
                <path d="M28,276 L4,276 L4,288 L28,288 L28,276 Z" id="Fill-31" fill="#BEBEBE" sketch:type="MSShapeGroup"></path>
                <path d="M20,288 L12,288 L12,300 L20,300 L20,288 Z" id="Fill-32" fill="#A57D52" sketch:type="MSShapeGroup"></path>
                <path d="M4,308 L28,308 L28,304 L4,304 L4,308 Z" id="Fill-33" fill="#BEBEBE" sketch:type="MSShapeGroup"></path>
                <path d="M6,304 L26,304 L26,296 L6,296 L6,304 Z" id="Fill-34" fill="#A57D52" sketch:type="MSShapeGroup"></path>
                <path d="M0,384 L4,384 L4,364 L0,364 L0,384 Z" id="Fill-35" fill="#CBCBCB" sketch:type="MSShapeGroup"></path>
                <path d="M28,420 L4,420 L4,400 L28,400 L28,420 Z" id="Fill-36" fill="#BEBEBE" sketch:type="MSShapeGroup"></path>
                <path d="M8,420 L0,420 L0,404 L8,404 L8,420 Z" id="Fill-37" fill="#8C8C8C" sketch:type="MSShapeGroup"></path>
                <path d="M32,420 L24,420 L24,404 L32,404 L32,420 Z" id="Fill-38" fill="#8C8C8C" sketch:type="MSShapeGroup"></path>
                <path d="M20,420 L12,420 L12,404 L20,404 L20,420 Z" id="Fill-39" fill="#8C8C8C" sketch:type="MSShapeGroup"></path>
                <path d="M30,356 L2,356 L2,352 L30,352 L30,356 Z" id="Fill-40" fill="#8C8C8C" sketch:type="MSShapeGroup"></path>
                <path d="M28,360 L4,360 L4,356 L28,356 L28,360 Z" id="Fill-41" fill="#323232" sketch:type="MSShapeGroup"></path>
            </g>
        </g>
    </g>
</svg>